<svg width="137" height="20" viewBox="0 0 137 20" fill="none" xmlns="http://www.w3.org/2000/svg">
<path d="M21.4985 8.09899C21.4985 5.59215 19.4663 3.55995 16.9595 3.55995C15.8107 3.55995 14.7616 3.98672 13.9621 4.69036C12.7881 3.51326 11.1645 2.78491 9.37071 2.78491C5.78951 2.78491 2.88637 5.68805 2.88637 9.26925C2.88637 9.91801 2.98164 10.5445 3.15896 11.1355C1.32692 11.7196 0 13.4353 0 15.461C0 17.9678 2.0322 20 4.53904 20C5.26051 20 5.94266 19.8317 6.54837 19.5322L19.0463 12.131C20.5031 11.3754 21.4985 9.85344 21.4985 8.09899Z" fill="#00A0E9"/>
<path d="M10.3731 1.55214C11.7537 1.72425 13.0149 2.28088 14.0462 3.1115C14.9193 2.5536 15.9568 2.23023 17.0698 2.23023C19.6078 2.23023 21.753 3.9115 22.4526 6.22102C23.0071 5.59266 23.3436 4.7673 23.3436 3.86335C23.3436 1.89469 21.7477 0.298769 19.779 0.298769C18.803 0.298769 17.9186 0.691044 17.2749 1.32654C16.4036 0.504143 15.2287 0 13.936 0C12.529 0 11.2614 0.597286 10.3731 1.55214Z" fill="#00A0E9"/>
<path d="M44.0743 4.60267V18H42.1117V4.60267H37.845V2.72533H48.341V4.60267H44.0743Z" fill="#2A2A2A"/>
<path d="M66.1338 2.72533H68.1818L64.1072 18H62.1018L58.8165 7.93067H58.7312L55.4458 18H53.4405L49.1952 2.72533H51.2432L54.4645 14.736H54.5498L57.8565 4.77333H59.6912L62.9978 14.736H63.0832L66.1338 2.72533Z" fill="#2A2A2A"/>
<path d="M75.2618 4.60267V18H73.2992V4.60267H69.0325V2.72533H79.5285V4.60267H75.2618Z" fill="#2A2A2A"/>
<path d="M88.2275 18H86.2648V2.72533H88.6542L96.0782 14.608H96.1635L96.0782 11.664V2.72533H98.0408V18H95.9928L88.2275 5.54133H88.1422L88.2275 8.48533V18Z" fill="#2A2A2A"/>
<path d="M105.471 18.3413C103.935 18.3413 102.669 17.8151 101.674 16.7627C100.678 15.7102 100.18 14.3804 100.18 12.7733C100.18 11.1804 100.664 9.85778 101.631 8.80533C102.598 7.73867 103.835 7.20533 105.343 7.20533C106.893 7.20533 108.123 7.71022 109.034 8.72C109.958 9.71556 110.42 11.1164 110.42 12.9227L110.399 13.136H102.186C102.214 14.16 102.555 14.9849 103.21 15.6107C103.864 16.2364 104.646 16.5493 105.556 16.5493C106.808 16.5493 107.789 15.9236 108.5 14.672L110.25 15.5253C109.78 16.4071 109.126 17.0969 108.287 17.5947C107.462 18.0924 106.523 18.3413 105.471 18.3413ZM102.335 11.5147H108.33C108.273 10.7893 107.974 10.192 107.434 9.72267C106.907 9.23911 106.196 8.99733 105.3 8.99733C104.561 8.99733 103.921 9.22489 103.38 9.68C102.854 10.1351 102.506 10.7467 102.335 11.5147Z" fill="#2A2A2A"/>
<path d="M126.812 7.54667L123.442 18H121.436L118.834 9.97867L116.252 18H114.268L110.898 7.54667H112.946L115.271 15.44H115.292L117.874 7.54667H119.9L122.482 15.44H122.503L124.807 7.54667H126.812Z" fill="#2A2A2A"/>
<path d="M136.09 15.0987C136.09 16.0089 135.692 16.7769 134.896 17.4027C134.099 18.0284 133.096 18.3413 131.888 18.3413C130.835 18.3413 129.911 18.0711 129.114 17.5307C128.318 16.976 127.749 16.2507 127.408 15.3547L129.157 14.608C129.413 15.2338 129.783 15.7244 130.266 16.08C130.764 16.4213 131.304 16.592 131.888 16.592C132.513 16.592 133.032 16.4569 133.445 16.1867C133.872 15.9164 134.085 15.5964 134.085 15.2267C134.085 14.5582 133.573 14.0676 132.549 13.7547L130.757 13.3067C128.723 12.7947 127.706 11.8133 127.706 10.3627C127.706 9.40978 128.09 8.64889 128.858 8.08C129.64 7.49689 130.636 7.20533 131.845 7.20533C132.769 7.20533 133.601 7.42578 134.341 7.86667C135.095 8.30756 135.621 8.89778 135.92 9.63733L134.17 10.3627C133.971 9.92178 133.644 9.58044 133.189 9.33867C132.748 9.08267 132.25 8.95467 131.696 8.95467C131.184 8.95467 130.721 9.08267 130.309 9.33867C129.911 9.59467 129.712 9.90756 129.712 10.2773C129.712 10.8747 130.273 11.3013 131.397 11.5573L132.976 11.9627C135.052 12.4747 136.09 13.52 136.09 15.0987Z" fill="#2A2A2A"/>
</svg>
