<svg width="149" height="24" viewBox="0 0 149 24" fill="none" xmlns="http://www.w3.org/2000/svg">
<path d="M10.112 2.904V23H7.168V2.904H0.768V0.0879993H16.512V2.904H10.112ZM43.2013 0.0879993H46.2733L40.1613 23H37.1533L32.2253 7.896H32.0973L27.1693 23H24.1613L17.7933 0.0879993H20.8653L25.6973 18.104H25.8253L30.7853 3.16H33.5373L38.4973 18.104H38.6253L43.2013 0.0879993ZM56.8933 2.904V23H53.9493V2.904H47.5493V0.0879993H63.2933V2.904H56.8933ZM76.3418 23H73.3978V0.0879993H76.9818L88.1178 17.912H88.2458L88.1178 13.496V0.0879993H91.0618V23H87.9897L76.3418 4.312H76.2138L76.3418 8.728V23ZM102.207 23.512C99.903 23.512 98.0043 22.7227 96.511 21.144C95.0177 19.5653 94.271 17.5707 94.271 15.16C94.271 12.7707 94.9963 10.7867 96.447 9.208C97.8977 7.608 99.7537 6.808 102.015 6.808C104.34 6.808 106.186 7.56533 107.551 9.08C108.938 10.5733 109.631 12.6747 109.631 15.384L109.599 15.704H97.279C97.3217 17.24 97.8337 18.4773 98.815 19.416C99.7963 20.3547 100.97 20.824 102.335 20.824C104.212 20.824 105.684 19.8853 106.751 18.008L109.375 19.288C108.671 20.6107 107.69 21.6453 106.431 22.392C105.194 23.1387 103.786 23.512 102.207 23.512ZM97.503 13.272H106.495C106.41 12.184 105.962 11.288 105.151 10.584C104.362 9.85867 103.295 9.496 101.951 9.496C100.842 9.496 99.8817 9.83733 99.071 10.52C98.2817 11.2027 97.759 12.12 97.503 13.272ZM134.219 7.32L129.163 23H126.155L122.251 10.968L118.379 23H115.403L110.347 7.32H113.419L116.907 19.16H116.939L120.811 7.32H123.851L127.723 19.16H127.755L131.211 7.32H134.219ZM148.136 18.648C148.136 20.0133 147.538 21.1653 146.344 22.104C145.149 23.0427 143.645 23.512 141.832 23.512C140.253 23.512 138.866 23.1067 137.672 22.296C136.477 21.464 135.624 20.376 135.112 19.032L137.736 17.912C138.12 18.8507 138.674 19.5867 139.4 20.12C140.146 20.632 140.957 20.888 141.832 20.888C142.77 20.888 143.549 20.6853 144.168 20.28C144.808 19.8747 145.128 19.3947 145.128 18.84C145.128 17.8373 144.36 17.1013 142.824 16.632L140.136 15.96C137.085 15.192 135.56 13.72 135.56 11.544C135.56 10.1147 136.136 8.97333 137.288 8.12C138.461 7.24533 139.954 6.808 141.768 6.808C143.154 6.808 144.402 7.13867 145.512 7.8C146.642 8.46133 147.432 9.34667 147.88 10.456L145.256 11.544C144.957 10.8827 144.466 10.3707 143.784 10.008C143.122 9.624 142.376 9.432 141.544 9.432C140.776 9.432 140.082 9.624 139.464 10.008C138.866 10.392 138.568 10.8613 138.568 11.416C138.568 12.312 139.41 12.952 141.096 13.336L143.464 13.944C146.578 14.712 148.136 16.28 148.136 18.648Z" fill="#2A2A2A"/>
</svg>
